<svg width="18" height="18" viewBox="0 0 18 18" fill="none" xmlns="http://www.w3.org/2000/svg">
<path d="M11.5486 16.89C11.4071 17.2199 11.1625 17.4231 10.8146 17.4995C10.4672 17.5763 10.1638 17.4851 9.90454 17.2258L7.27057 14.5919C7.10558 14.4269 7.0054 14.2324 6.97005 14.0085C6.93469 13.7846 6.98183 13.5724 7.11147 13.3721L10.9652 6.97278L4.56588 10.8265C4.36554 10.9561 4.15341 11.0033 3.92949 10.9679C3.70557 10.9326 3.51112 10.8324 3.34613 10.6674L0.712152 8.03344C0.45288 7.77417 0.361428 7.47058 0.437795 7.12269C0.514634 6.77526 0.718045 6.53084 1.04803 6.38942L16.5337 0.0961682C16.9579 -0.0688228 17.3233 0.00188742 17.6297 0.3083C17.9361 0.614713 18.0068 0.980052 17.8418 1.40432L11.5486 16.89Z" fill="white"/>
</svg>
